<svg width="1031" height="238" viewBox="0 0 1031 238" fill="none" xmlns="http://www.w3.org/2000/svg">
<path fill-rule="evenodd" clip-rule="evenodd" d="M492.829 44.8197C486.03 39.1714 478.393 33.6117 469.556 33.3901C324.319 29.7476 142.868 10.6826 54.0515 0.472142C25.3186 -2.83103 0 19.5944 0 48.5165V190C0 216.51 21.4903 238 48 238H983C1009.51 238 1031 216.51 1031 190V48.5165C1031 19.5944 1005.68 -2.83103 976.948 0.472149C888.132 10.6827 706.68 29.7476 561.444 33.3901C552.607 33.6117 544.97 39.1713 538.171 44.8197C532.021 49.9283 524.119 53.0001 515.5 53.0001C506.881 53.0001 498.979 49.9283 492.829 44.8197Z" fill="#6DA975"/>
</svg>
